<?xml version="1.0" encoding="utf-8"?>
<!-- Generator: Adobe Illustrator 12.0.0, SVG Export Plug-In . SVG Version: 6.00 Build 51448)  -->
<!DOCTYPE svg PUBLIC "-//W3C//DTD SVG 1.1//EN" "http://www.w3.org/Graphics/SVG/1.1/DTD/svg11.dtd" [
	<!ENTITY ns_svg "http://www.w3.org/2000/svg">
	<!ENTITY ns_xlink "http://www.w3.org/1999/xlink">
]>
<svg  version="1.1" id="Ebene_1" xmlns="&ns_svg;" xmlns:xlink="&ns_xlink;" width="406.662" height="170.532"
	 viewBox="0 0 406.662 170.532" overflow="visible" enable-background="new 0 0 406.662 170.532" xml:space="preserve">
<g>
	<g>
		<g>
			<path fill="#FFFFFF" d="M220.059,98.02c-0.242,0.482-0.526,0.83-0.854,1.035c-0.327,0.206-0.732,0.309-1.216,0.309
				c-0.461,0-0.959-0.168-1.49-0.507c-0.534-0.34-1.159-0.709-1.872-1.109c-0.715-0.401-1.546-0.77-2.491-1.109
				c-0.945-0.339-2.035-0.509-3.272-0.509c-2.179,0-3.82,0.531-4.924,1.598c-1.104,1.067-1.655,2.461-1.655,4.181
				c0,1.092,0.297,1.993,0.892,2.71c0.593,0.713,1.381,1.332,2.362,1.854c0.981,0.52,2.095,0.987,3.343,1.397
				c1.248,0.412,2.526,0.854,3.835,1.327c1.309,0.472,2.586,1.031,3.834,1.672c1.249,0.641,2.364,1.447,3.345,2.418
				c0.981,0.968,1.768,2.155,2.363,3.561c0.593,1.406,0.889,3.115,0.889,5.125c0,2.18-0.357,4.229-1.072,6.143
				c-0.715,1.915-1.761,3.581-3.144,4.997c-1.381,1.419-3.072,2.54-5.069,3.362c-2,0.821-4.283,1.234-6.853,1.234
				c-1.453,0-2.903-0.151-4.344-0.453c-1.441-0.304-2.829-0.732-4.16-1.29c-1.334-0.559-2.594-1.226-3.78-2
				c-1.188-0.776-2.229-1.646-3.126-2.617l2.835-4.543c0.218-0.365,0.515-0.654,0.891-0.873c0.374-0.218,0.78-0.327,1.216-0.327
				c0.582,0,1.182,0.224,1.8,0.672s1.337,0.946,2.163,1.49c0.824,0.546,1.779,1.042,2.871,1.491c1.091,0.448,2.385,0.673,3.89,0.673
				c2.18,0,3.875-0.557,5.087-1.674c1.212-1.113,1.817-2.763,1.817-4.942c0-1.236-0.296-2.24-0.89-3.017
				c-0.594-0.774-1.376-1.424-2.344-1.944c-0.971-0.521-2.079-0.968-3.327-1.346c-1.249-0.373-2.52-0.781-3.815-1.216
				c-1.295-0.437-2.569-0.964-3.817-1.582c-1.247-0.618-2.356-1.437-3.326-2.452c-0.968-1.021-1.75-2.277-2.344-3.781
				c-0.595-1.503-0.891-3.368-0.891-5.598c0-1.768,0.34-3.495,1.019-5.179c0.678-1.683,1.671-3.181,2.979-4.488
				c1.309-1.307,2.913-2.356,4.817-3.145c1.9-0.787,4.075-1.182,6.522-1.182c2.763,0,5.325,0.45,7.688,1.346
				c2.363,0.896,4.379,2.156,6.052,3.78L220.059,98.02z"/>
			<polygon fill="#FFFFFF" points="259.132,88.933 259.132,96.529 239.287,96.529 239.287,109.286 254.735,109.286 254.735,116.592 
				239.287,116.592 239.287,129.604 259.169,129.604 259.132,137.2 229.692,137.2 229.692,88.933 			"/>
			<path fill="#FFFFFF" d="M272.217,88.987c0.292,0.037,0.552,0.108,0.78,0.218c0.23,0.109,0.45,0.262,0.655,0.456
				c0.206,0.193,0.441,0.449,0.709,0.762l23.77,31.33c-0.146-1.6-0.218-3.112-0.218-4.544V88.933h8.396V137.2h-4.905
				c-0.753,0-1.376-0.126-1.875-0.381c-0.495-0.255-0.986-0.673-1.472-1.255l-23.696-31.147c0.146,1.502,0.217,2.896,0.217,4.18
				V137.2h-8.43V88.933h5.015C271.578,88.933,271.927,88.952,272.217,88.987"/>
			<rect x="315.87" y="88.933" fill="#FFFFFF" width="9.594" height="48.268"/>
			<polygon fill="#FFFFFF" points="366.789,88.933 366.789,96.711 353.776,96.711 353.776,137.2 344.255,137.2 344.255,96.711 
				331.244,96.711 331.244,88.933 			"/>
			<path fill="#FFFFFF" d="M391.504,118.591v18.61h-9.451v-18.684l-15.155-29.585h8.468c0.775,0,1.405,0.194,1.89,0.581
				c0.485,0.389,0.887,0.897,1.201,1.526l5.96,15.592c0.509,0.971,0.963,1.879,1.364,2.727c0.398,0.849,0.758,1.696,1.071,2.544
				c0.267-0.848,0.593-1.695,0.981-2.544c0.387-0.848,0.824-1.745,1.309-2.689l5.923-15.629c0.268-0.508,0.655-0.986,1.165-1.436
				c0.508-0.448,1.164-0.673,1.962-0.673h8.47L391.504,118.591z"/>
			<path fill="#33398B" d="M90.145,160.878c0,5.332-4.322,9.654-9.654,9.654s-9.655-4.322-9.655-9.654
				c0-5.333,4.323-9.653,9.655-9.653S90.145,155.544,90.145,160.878"/>
			<path fill="#33398B" d="M60.829,146.191c0,5.136-4.163,9.298-9.298,9.298c-5.136,0-9.299-4.162-9.299-9.298
				c0-5.135,4.163-9.298,9.299-9.298C56.667,136.894,60.829,141.057,60.829,146.191"/>
			<path fill="#33398B" d="M44.874,112.244c0,4.376-3.547,7.923-7.923,7.923c-4.377,0-7.923-3.547-7.923-7.923
				c0-4.375,3.546-7.923,7.923-7.923C41.327,104.321,44.874,107.869,44.874,112.244"/>
			<path fill="#33398B" d="M16.198,86.598c0,4.472-3.625,8.099-8.099,8.099C3.627,94.696,0,91.069,0,86.598
				c0-4.472,3.627-8.099,8.099-8.099C12.572,78.499,16.198,82.125,16.198,86.598"/>
			<path fill="#33398B" d="M21.391,39.905c0,4.176-3.386,7.563-7.563,7.563c-4.18,0-7.564-3.387-7.564-7.563
				c0-4.177,3.385-7.563,7.564-7.563C18.005,32.341,21.391,35.729,21.391,39.905"/>
			<path fill="#33398B" d="M54.618,64.165c0,6.262-5.075,11.337-11.336,11.337c-6.259,0-11.334-5.075-11.334-11.337
				c0-6.261,5.076-11.336,11.334-11.336C49.542,52.829,54.618,57.904,54.618,64.165"/>
			<path fill="#33398B" d="M65.371,22.103c0,5.66-4.588,10.248-10.248,10.248c-5.658,0-10.246-4.588-10.246-10.248
				c0-5.659,4.588-10.248,10.246-10.248C60.782,11.855,65.371,16.444,65.371,22.103"/>
			<path fill="#E40D7E" d="M98.467,26.436c1.825,0,3.562-0.369,5.143-1.037l22.856,31.913c-2.138,2.383-3.449,5.521-3.449,8.975
				c0,0.484,0.029,0.963,0.078,1.434l-17.042,5.744c-1.844-2.602-4.87-4.304-8.298-4.304c-5.616,0-10.168,4.552-10.168,10.169
				c0,5.615,4.552,10.168,10.168,10.168s10.169-4.554,10.169-10.168c0-0.117-0.013-0.232-0.018-0.348l17.06-5.749
				c2.356,3.896,6.623,6.507,11.507,6.507c7.432,0,13.457-6.024,13.457-13.455c0-7.433-6.025-13.457-13.457-13.457
				c-1.876,0-3.661,0.385-5.284,1.08l-22.856-31.915c2.077-2.336,3.352-5.402,3.352-8.777c0-7.3-5.917-13.218-13.218-13.218
				S85.249,5.918,85.249,13.217C85.249,20.518,91.167,26.436,98.467,26.436"/>
			<path fill="#6A4E9A" d="M137.427,96.112c-4.328,0-7.988,2.843-9.223,6.761h-18.275c-1.236-3.917-4.896-6.761-9.223-6.761
				c-2.8,0-5.314,1.196-7.08,3.098l-14.425-6.829c0.171-0.821,0.261-1.669,0.261-2.538c0-4.335-2.222-8.146-5.585-10.367
				l5.623-15.584c0.968,0.168,1.961,0.275,2.977,0.275c9.447,0,17.106-7.659,17.106-17.104c0-9.448-7.659-17.107-17.106-17.107
				c-9.446,0-17.105,7.659-17.105,17.107c0,6.366,3.488,11.912,8.651,14.856L68.4,77.499c-0.446-0.05-0.899-0.079-1.36-0.079
				c-6.86,0-12.421,5.561-12.421,12.422s5.561,12.421,12.421,12.421c3.906,0,7.386-1.807,9.662-4.625l14.433,6.834
				c-0.058,0.432-0.101,0.867-0.101,1.312c0,2.722,1.127,5.176,2.937,6.933l-7.204,14.351c-0.323-0.036-0.653-0.061-0.987-0.061
				c-4.708,0-8.522,3.816-8.522,8.521c0,4.707,3.814,8.523,8.522,8.523c4.705,0,8.52-3.816,8.52-8.523
				c0-2.264-0.89-4.318-2.332-5.844l7.208-14.36c0.5,0.078,1.008,0.132,1.531,0.132c4.327,0,7.988-2.842,9.223-6.759h18.275
				c1.236,3.916,4.896,6.759,9.223,6.759c5.342,0,9.671-4.33,9.671-9.672C147.098,100.443,142.769,96.112,137.427,96.112"/>
			<path fill="#010203" d="M82.476,24.645c0.005,0,0.011,0.001,0.015,0.001c-0.135-0.19-0.256-0.389-0.384-0.583
				c-0.236,0.208-0.466,0.424-0.699,0.635C81.764,24.682,82.115,24.645,82.476,24.645"/>
			<path fill="#FFFFFF" d="M107.941,66.854l9.458-3.187c0.28-2.163,0.92-4.208,1.854-6.083l-17.865-24.947
				c-0.556,0.082-1.117,0.142-1.685,0.177c3.143,3.838,5.03,8.744,5.03,14.089c0,6.64-2.921,12.583-7.531,16.661
				c0.283-0.015,0.561-0.043,0.849-0.043C101.77,63.52,105.188,64.771,107.941,66.854"/>
			<path fill="#FFFFFF" d="M185.862,88.043l-17.836-20.399c-0.949-15.253-7.092-31.302-18.936-41.425
				c-8.03-6.863-20.465-11.936-31.036-12.474c-0.108-0.004-0.199-0.003-0.297-0.004c0.03,0.443,0.067,0.887,0.067,1.337
				c0,3.376-0.864,6.547-2.38,9.313l17.355,24.23c1.024-0.171,2.069-0.281,3.143-0.281c10.499,0,19.012,8.512,19.012,19.011
				c0,10.5-8.514,19.011-19.012,19.011c-5.064,0-9.654-1.991-13.062-5.22l-8.977,3.025c-0.781,3.887-2.954,7.261-5.971,9.605
				c1.882,1.063,3.498,2.532,4.746,4.285h11.764c2.711-3.972,7.27-6.58,12.441-6.58c8.314,0,15.054,6.739,15.054,15.052
				c0,8.313-6.739,15.054-15.054,15.054c-5.035,0-9.483-2.482-12.215-6.281h-12.214c-2.247,2.996-5.605,5.098-9.467,5.696
				l-4.918,9.798c0.646,1.557,1.006,3.264,1.006,5.055c0,4.122-1.892,7.801-4.853,10.219c0.06,0.027,0.117,0.061,0.178,0.087
				c0.004,0.063,0.004,0.123,0.027,0.194c2.258,1.305,5.031,1.926,7.411,3.135c5.334,2.708,10.889,6.995,14.462,11.801l29.244-0.054
				l10.118-20.14c6.796-3.326,19.582-2.019,21.105-11.709c0.475-3.021-0.789-6.231-1.382-9.181c1.216-2.451,6.463-4.611,4.591-7.909
				c-0.58-1.021-2.004-1.244-1.889-2.342c0.116-1.118,3.172-1.33,2.355-4.447c-0.376-1.437-2.611-4.055-3.083-5.356
				c-0.637-1.766,2.843-2.859,4.204-3.907C184.029,94.344,187.117,91.443,185.862,88.043"/>
		</g>
	</g>
</g>
</svg>
